# xmcd
#
# Track frame offsets: 
#        150
#        13772
#        28597
#        42840
#        58380
#        73142
#        86815
#        101680
#        117835
#        133275
#        149435
#        165550
#        179625
#        194875
#        208945
#        225482
#
# Disc length: 3219 seconds
#
# Revision: 2
# Processed by: cddbd v1.5.2PL0 Copyright (c) Steve Scherf et al.
# Submitted via: ExactAudioCopy v1.0b3
#
DISCID=fc0c9110
DTITLE=Kristina Bach - Erfolge
DYEAR=2000
DGENRE=Pop
TTITLE0=Caballero - Caballero
TTITLE1=Er schenkte mir den Eiffelturm
TTITLE2=Da war das Feuer einer Sommernacht
TTITLE3=Hoerst Du denn noch immer Al Martino
TTITLE4=Verdammt zur Sehnsucht
TTITLE5=Manchmal stuerzt die Seele ab
TTITLE6=Geh nie vorbei
TTITLE7=Dann bist Du fuer mich da
TTITLE8=Warum fragst Du nie
TTITLE9=Ich will nicht laenger Dein Geheimnis sein
TTITLE10=Matador
TTITLE11=Tango mit Fernando
TTITLE12=Avanti Avanti
TTITLE13=Stimmen der Nacht
TTITLE14=Und die Erde steht still
TTITLE15=Was bleibt, ist die Musik
EXTD=
EXTT0=
EXTT1=
EXTT2=
EXTT3=
EXTT4=
EXTT5=
EXTT6=
EXTT7=
EXTT8=
EXTT9=
EXTT10=
EXTT11=
EXTT12=
EXTT13=
EXTT14=
EXTT15=
PLAYORDER=
